
Format : AVI
Format/Info : Audio Video Interleave
Format profile : OpenDML
File size : 1.40 GiB
Duration : 1h 23mn
Overall bit rate : 2 392 Kbps
Writing application : AVI-Mux GUI 1.17.8.3, Feb 16 201019:42:50

Video
ID : 0
Format : MPEG-4 Visual
Format profile : Advanced Simple@L5
Format settings, BVOP : Yes
Format settings, QPel : No
Format settings, GMC : No warppoints
Format settings, Matrix : Default (MPEG)
Codec ID : XVID
Codec ID/Hint : XviD
Duration : 1h 23mn
Bit rate : 1 939 Kbps
Width : 720 pixels
Height : 400 pixels
Display aspect ratio : 16:9
Frame rate : 23.976 fps
Color space : YUV
Chroma subsampling : 4:2:0
Bit depth : 8 bits
Scan type : Progressive
Bits/(Pixel*Frame) : 0.281
Stream size : 1.13 GiB (81%)
Writing library : XviD 1.2.1 (UTC 2008-12-04)

Audio
ID : 1
Format : AC-3
Format/Info : Audio Coding 3
Mode extension : CM (complete main)
Codec ID : 2000
Duration : 1h 23mn
Bit rate mode : Constant
Bit rate : 448 Kbps
Channel(s) : 6 channels
Channel positions : Front: L C R, Side: L R, LFE
Sampling rate : 48.0 KHz
Bit depth : 16 bits
Stream size : 268 MiB (19%)
Alignment : Aligned on interleaves
Interleave, duration : 64 ms (1.53 video frames)
Interleave, preload duration : 192 ms
Title : 3_2ch 448Kbps DELAY 0ms english

Actors: Jane Lynch, Bryan Callen, Matt Servitto, Alexie Gilmore, Cynthia Harris
Directors: Steve Blair
Language: English
Rated: R (Restricted)
Studio: Phase 4 Films
DVD Release Date: July 20, 2010
Run Time: 83 minutes
 
http://www.imdb.com/title/tt0834009/

screens

